<svg width="256" height="256" viewBox="0 0 256 256" fill="none" xmlns="http://www.w3.org/2000/svg">
<rect width="256" height="256" rx="40" fill="#330C75"/>
<path d="M89.7212 154.056C77.894 154.056 68.4956 151.486 61.526 146.347C54.6268 141.208 51.1772 133.182 51.1772 122.27V81.9312C51.1772 81.1568 51.4588 80.488 52.022 79.9248C52.5852 79.3616 53.254 79.08 54.0284 79.08H76.0988C76.8732 79.08 77.542 79.3616 78.1052 79.9248C78.6684 80.488 78.95 81.1568 78.95 81.9312V123.96C78.95 126.846 79.9004 129.064 81.8012 130.613C83.7724 132.162 86.4124 132.936 89.7212 132.936C93.03 132.936 95.6348 132.162 97.5356 130.613C99.5068 129.064 100.492 126.846 100.492 123.96V81.9312C100.492 81.1568 100.774 80.488 101.337 79.9248C101.9 79.3616 102.569 79.08 103.344 79.08H125.414C126.188 79.08 126.857 79.3616 127.42 79.9248C127.984 80.488 128.265 81.1568 128.265 81.9312V122.27C128.265 133.182 124.78 141.208 117.811 146.347C110.912 151.486 101.548 154.056 89.7212 154.056ZM208.058 149.515C208.269 149.726 208.374 150.008 208.374 150.36C208.374 151.064 208.128 151.698 207.635 152.261C207.213 152.754 206.685 153 206.051 153H183.347C181.446 153 180.003 152.19 179.018 150.571L168.774 134.837L158.742 150.571C157.686 152.19 156.243 153 154.413 153H131.603C130.97 153 130.406 152.789 129.914 152.366C129.491 151.874 129.28 151.31 129.28 150.677V150.36C129.28 150.008 129.386 149.726 129.597 149.515L152.934 113.822L132.131 82.5648C131.92 82.2832 131.814 81.896 131.814 81.4032C131.814 80.7696 132.026 80.2416 132.448 79.8192C132.941 79.3264 133.504 79.08 134.138 79.08H156.947C158.778 79.08 160.256 79.96 161.382 81.72L169.619 95.2368L178.49 81.5088C178.982 80.8752 179.51 80.312 180.074 79.8192C180.707 79.3264 181.622 79.08 182.819 79.08H205.523C206.157 79.08 206.685 79.3264 207.107 79.8192C207.6 80.2416 207.846 80.7696 207.846 81.4032V81.72C207.846 82.072 207.741 82.3536 207.53 82.5648L185.459 115.195L208.058 149.515Z" fill="white"/>
<rect x="52" y="168" width="160" height="24" rx="8" fill="#EF5800"/>
</svg>
