<svg width="219" height="219" viewBox="0 0 219 219" fill="none" xmlns="http://www.w3.org/2000/svg">
<path d="M98.4015 191.841C104.909 191.841 111.219 190.857 117.135 189.283L36.8759 120.598L28.002 132.407C33.5235 166.06 62.906 191.841 98.4015 191.841Z" fill="#FC4C02"/>
<path d="M169.787 120.598H122.854V187.512C150.462 177.475 169.787 151.3 169.787 120.598Z" fill="#FC4C02"/>
<path d="M174.914 120.598C174.914 162.714 140.799 196.761 98.4015 196.761C62.1172 196.761 31.7489 171.57 23.861 137.523L7.69086 159.172C22.6778 194.203 57.5817 219 98.4015 219C152.828 219 197 174.916 197 120.598H174.914Z" fill="#FC4C02"/>
<path d="M73.7519 53.6854C46.3415 63.7223 26.819 89.8971 26.819 120.598H73.7519V53.6854Z" fill="#FC4C02"/>
<path d="M22.0861 120.598C22.0861 78.4825 56.2012 44.2388 98.5986 44.2388C134.883 44.2388 165.251 69.4296 173.139 103.477L189.309 81.8282C174.322 46.7972 139.418 22 98.5986 22C44.1722 22 0 66.084 0 120.402H22.0861V120.598Z" fill="#FC4C02"/>
<path d="M98.4014 49.1589C91.8939 49.1589 85.5836 50.1429 79.6676 51.7173L160.124 120.402L168.998 108.593C163.279 75.1369 133.897 49.1589 98.4014 49.1589Z" fill="#FC4C02"/>
</svg>
