<svg width="378" height="351" viewBox="0 0 378 351" fill="none" xmlns="http://www.w3.org/2000/svg">
<path d="M114.093 219.444C114.093 224.673 112.833 228.485 110.313 230.879C107.793 233.21 103.698 234.375 98.028 234.375H86.5935V227.288H98.8785C101.272 227.288 103.036 226.752 104.171 225.681C105.304 224.547 105.871 222.783 105.871 220.389V208.388C105.871 206.309 105.241 204.67 103.981 203.474C102.721 202.214 101.052 201.584 98.973 201.584H87.5385V168.225H112.675V175.313H95.571V194.496H98.5005C103.351 194.496 107.163 195.693 109.935 198.087C112.707 200.481 114.093 204.198 114.093 209.238V219.444ZM158.482 219.444C158.482 224.673 157.222 228.485 154.702 230.879C152.182 233.21 148.087 234.375 142.417 234.375H130.983V227.288H143.268C145.662 227.288 147.426 226.752 148.56 225.681C149.694 224.547 150.261 222.783 150.261 220.389V208.388C150.261 206.309 149.631 204.67 148.371 203.474C147.111 202.214 145.441 201.584 143.362 201.584H131.928V168.225H157.065V175.313H139.96V194.496H142.89C147.741 194.496 151.552 195.693 154.324 198.087C157.096 200.481 158.482 204.198 158.482 209.238V219.444ZM173.671 196.575V187.125H183.121V196.575H173.671ZM173.671 234.375V224.925H183.121V234.375H173.671ZM229.281 219.255C229.281 224.547 227.958 228.39 225.312 230.784C222.729 233.178 218.697 234.375 213.216 234.375H211.988C206.507 234.375 202.443 233.178 199.797 230.784C197.214 228.39 195.923 224.547 195.923 219.255V202.245C195.923 196.953 197.214 193.11 199.797 190.716C202.443 188.322 206.507 187.125 211.988 187.125H213.216C218.697 187.125 222.729 188.322 225.312 190.716C227.958 193.11 229.281 196.953 229.281 202.245V219.255ZM221.249 200.355C221.249 198.402 220.65 196.89 219.453 195.819C218.256 194.748 216.492 194.213 214.161 194.213H211.043C208.712 194.213 206.948 194.748 205.751 195.819C204.554 196.89 203.955 198.402 203.955 200.355V221.145C203.955 223.098 204.554 224.61 205.751 225.681C206.948 226.752 208.712 227.288 211.043 227.288H214.161C216.492 227.288 218.256 226.752 219.453 225.681C220.65 224.61 221.249 223.098 221.249 221.145V200.355ZM256.229 175.313C255.221 175.313 254.402 175.596 253.772 176.163C253.205 176.667 252.922 177.329 252.922 178.148V187.125H264.356V194.213H252.922V234.375H244.889V194.213H238.747V187.125H244.889V178.62C244.889 175.407 245.803 172.887 247.63 171.06C249.457 169.17 251.819 168.225 254.717 168.225H265.301V175.313H256.229ZM285.114 175.313C284.106 175.313 283.287 175.596 282.657 176.163C282.09 176.667 281.807 177.329 281.807 178.148V187.125H293.241V194.213H281.807V234.375H273.774V194.213H267.632V187.125H273.774V178.62C273.774 175.407 274.688 172.887 276.515 171.06C278.342 169.17 280.704 168.225 283.602 168.225H294.186V175.313H285.114Z" fill="#1DDD34"/>
<path d="M110.313 230.879L111.65 232.324L111.659 232.315L111.669 232.306L110.313 230.879ZM86.5935 234.375H84.6247V236.344H86.5935V234.375ZM86.5935 227.288V225.319H84.6247V227.288H86.5935ZM104.171 225.681L105.522 227.112L105.543 227.093L105.563 227.073L104.171 225.681ZM103.981 203.474L102.589 204.866L102.607 204.883L102.626 204.901L103.981 203.474ZM87.5385 201.584H85.5697V203.552H87.5385V201.584ZM87.5385 168.225V166.256H85.5697V168.225H87.5385ZM112.675 168.225H114.644V166.256H112.675V168.225ZM112.675 175.313V177.281H114.644V175.313H112.675ZM95.571 175.313V173.344H93.6022V175.313H95.571ZM95.571 194.496H93.6022V196.465H95.571V194.496ZM109.935 198.087L108.648 199.577L108.648 199.577L109.935 198.087ZM112.124 219.444C112.124 224.404 110.925 227.581 108.957 229.451L111.669 232.306C114.741 229.388 116.062 224.942 116.062 219.444H112.124ZM108.976 229.433C106.994 231.267 103.506 232.406 98.028 232.406V236.344C103.89 236.344 108.592 235.152 111.65 232.324L108.976 229.433ZM98.028 232.406H86.5935V236.344H98.028V232.406ZM88.5622 234.375V227.288H84.6247V234.375H88.5622ZM86.5935 229.256H98.8785V225.319H86.5935V229.256ZM98.8785 229.256C101.514 229.256 103.869 228.674 105.522 227.112L102.819 224.25C102.204 224.83 101.031 225.319 98.8785 225.319V229.256ZM105.563 227.073C107.214 225.422 107.84 223.05 107.84 220.389H103.903C103.903 222.516 103.395 223.672 102.778 224.289L105.563 227.073ZM107.84 220.389V208.388H103.903V220.389H107.84ZM107.84 208.388C107.84 205.883 107.065 203.687 105.337 202.046L102.626 204.901C103.418 205.654 103.903 206.734 103.903 208.388H107.84ZM105.374 202.081C103.683 200.391 101.48 199.615 98.973 199.615V203.552C100.624 203.552 101.76 204.036 102.589 204.866L105.374 202.081ZM98.973 199.615H87.5385V203.552H98.973V199.615ZM89.5072 201.584V168.225H85.5697V201.584H89.5072ZM87.5385 170.194H112.675V166.256H87.5385V170.194ZM110.707 168.225V175.313H114.644V168.225H110.707ZM112.675 173.344H95.571V177.281H112.675V173.344ZM93.6022 175.313V194.496H97.5397V175.313H93.6022ZM95.571 196.465H98.5005V192.527H95.571V196.465ZM98.5005 196.465C103.034 196.465 106.336 197.58 108.648 199.577L111.222 196.597C107.99 193.806 103.669 192.527 98.5005 192.527V196.465ZM108.648 199.577C110.842 201.471 112.124 204.545 112.124 209.238H116.062C116.062 203.851 114.572 199.491 111.222 196.597L108.648 199.577ZM112.124 209.238V219.444H116.062V209.238H112.124ZM154.702 230.879L156.039 232.324L156.049 232.315L156.058 232.306L154.702 230.879ZM130.983 234.375H129.014V236.344H130.983V234.375ZM130.983 227.288V225.319H129.014V227.288H130.983ZM148.56 225.681L149.911 227.112L149.932 227.093L149.952 227.073L148.56 225.681ZM148.371 203.474L146.979 204.866L146.996 204.883L147.015 204.901L148.371 203.474ZM131.928 201.584H129.959V203.552H131.928V201.584ZM131.928 168.225V166.256H129.959V168.225H131.928ZM157.065 168.225H159.033V166.256H157.065V168.225ZM157.065 175.313V177.281H159.033V175.313H157.065ZM139.96 175.313V173.344H137.991V175.313H139.96ZM139.96 194.496H137.991V196.465H139.96V194.496ZM154.324 198.087L153.037 199.577L153.037 199.577L154.324 198.087ZM156.513 219.444C156.513 224.404 155.314 227.581 153.346 229.451L156.058 232.306C159.13 229.388 160.451 224.942 160.451 219.444H156.513ZM153.365 229.433C151.383 231.267 147.895 232.406 142.417 232.406V236.344C148.28 236.344 152.981 235.152 156.039 232.324L153.365 229.433ZM142.417 232.406H130.983V236.344H142.417V232.406ZM132.951 234.375V227.288H129.014V234.375H132.951ZM130.983 229.256H143.268V225.319H130.983V229.256ZM143.268 229.256C145.903 229.256 148.258 228.674 149.911 227.112L147.208 224.25C146.593 224.83 145.42 225.319 143.268 225.319V229.256ZM149.952 227.073C151.603 225.422 152.229 223.05 152.229 220.389H148.292C148.292 222.516 147.785 223.672 147.168 224.289L149.952 227.073ZM152.229 220.389V208.388H148.292V220.389H152.229ZM152.229 208.388C152.229 205.883 151.454 203.687 149.727 202.046L147.015 204.901C147.808 205.654 148.292 206.734 148.292 208.388H152.229ZM149.763 202.081C148.072 200.391 145.869 199.615 143.362 199.615V203.552C145.013 203.552 146.149 204.036 146.979 204.866L149.763 202.081ZM143.362 199.615H131.928V203.552H143.362V199.615ZM133.896 201.584V168.225H129.959V201.584H133.896ZM131.928 170.194H157.065V166.256H131.928V170.194ZM155.096 168.225V175.313H159.033V168.225H155.096ZM157.065 173.344H139.96V177.281H157.065V173.344ZM137.991 175.313V194.496H141.929V175.313H137.991ZM139.96 196.465H142.89V192.527H139.96V196.465ZM142.89 196.465C147.424 196.465 150.725 197.58 153.037 199.577L155.611 196.597C152.379 193.806 148.058 192.527 142.89 192.527V196.465ZM153.037 199.577C155.231 201.471 156.513 204.545 156.513 209.238H160.451C160.451 203.851 158.961 199.491 155.611 196.597L153.037 199.577ZM156.513 209.238V219.444H160.451V209.238H156.513ZM173.671 196.575H171.702V198.544H173.671V196.575ZM173.671 187.125V185.156H171.702V187.125H173.671ZM183.121 187.125H185.09V185.156H183.121V187.125ZM183.121 196.575V198.544H185.09V196.575H183.121ZM173.671 234.375H171.702V236.344H173.671V234.375ZM173.671 224.925V222.956H171.702V224.925H173.671ZM183.121 224.925H185.09V222.956H183.121V224.925ZM183.121 234.375V236.344H185.09V234.375H183.121ZM175.64 196.575V187.125H171.702V196.575H175.64ZM173.671 189.094H183.121V185.156H173.671V189.094ZM181.152 187.125V196.575H185.09V187.125H181.152ZM183.121 194.606H173.671V198.544H183.121V194.606ZM175.64 234.375V224.925H171.702V234.375H175.64ZM173.671 226.894H183.121V222.956H173.671V226.894ZM181.152 224.925V234.375H185.09V224.925H181.152ZM183.121 232.406H173.671V236.344H183.121V232.406ZM225.312 230.784L223.991 229.324L223.982 229.332L223.974 229.34L225.312 230.784ZM199.797 230.784L198.459 232.228L198.467 232.236L198.476 232.244L199.797 230.784ZM199.797 190.716L198.476 189.256L198.467 189.264L198.459 189.272L199.797 190.716ZM225.312 190.716L223.974 192.16L223.982 192.168L223.991 192.176L225.312 190.716ZM219.453 195.819L218.14 197.286L218.14 197.286L219.453 195.819ZM205.751 195.819L207.063 197.286L207.063 197.286L205.751 195.819ZM205.751 225.681L207.063 224.214L207.063 224.214L205.751 225.681ZM219.453 225.681L218.14 224.214L218.14 224.214L219.453 225.681ZM227.312 219.255C227.312 224.262 226.059 227.453 223.991 229.324L226.633 232.244C229.857 229.327 231.25 224.832 231.25 219.255H227.312ZM223.974 229.34C221.912 231.251 218.467 232.406 213.216 232.406V236.344C218.928 236.344 223.547 235.105 226.65 232.228L223.974 229.34ZM213.216 232.406H211.988V236.344H213.216V232.406ZM211.988 232.406C206.742 232.406 203.251 231.254 201.118 229.324L198.476 232.244C201.636 235.102 206.271 236.344 211.988 236.344V232.406ZM201.135 229.34C199.12 227.472 197.891 224.274 197.891 219.255H193.954C193.954 224.82 195.309 229.308 198.459 232.228L201.135 229.34ZM197.891 219.255V202.245H193.954V219.255H197.891ZM197.891 202.245C197.891 197.226 199.12 194.028 201.135 192.16L198.459 189.272C195.309 192.192 193.954 196.68 193.954 202.245H197.891ZM201.118 192.176C203.251 190.246 206.742 189.094 211.988 189.094V185.156C206.271 185.156 201.636 186.398 198.476 189.256L201.118 192.176ZM211.988 189.094H213.216V185.156H211.988V189.094ZM213.216 189.094C218.467 189.094 221.912 190.249 223.974 192.16L226.65 189.272C223.547 186.395 218.928 185.156 213.216 185.156V189.094ZM223.991 192.176C226.059 194.047 227.312 197.238 227.312 202.245H231.25C231.25 196.668 229.857 192.173 226.633 189.256L223.991 192.176ZM227.312 202.245V219.255H231.25V202.245H227.312ZM223.217 200.355C223.217 197.973 222.469 195.876 220.766 194.352L218.14 197.286C218.831 197.904 219.28 198.831 219.28 200.355H223.217ZM220.766 194.352C219.074 192.838 216.761 192.244 214.161 192.244V196.181C216.223 196.181 217.438 196.658 218.14 197.286L220.766 194.352ZM214.161 192.244H211.043V196.181H214.161V192.244ZM211.043 192.244C208.443 192.244 206.129 192.838 204.438 194.352L207.063 197.286C207.766 196.658 208.981 196.181 211.043 196.181V192.244ZM204.438 194.352C202.735 195.876 201.986 197.973 201.986 200.355H205.924C205.924 198.831 206.373 197.904 207.063 197.286L204.438 194.352ZM201.986 200.355V221.145H205.924V200.355H201.986ZM201.986 221.145C201.986 223.527 202.735 225.624 204.438 227.148L207.063 224.214C206.373 223.596 205.924 222.669 205.924 221.145H201.986ZM204.438 227.148C206.129 228.662 208.443 229.256 211.043 229.256V225.319C208.981 225.319 207.766 224.842 207.063 224.214L204.438 227.148ZM211.043 229.256H214.161V225.319H211.043V229.256ZM214.161 229.256C216.761 229.256 219.074 228.662 220.766 227.148L218.14 224.214C217.438 224.842 216.223 225.319 214.161 225.319V229.256ZM220.766 227.148C222.469 225.624 223.217 223.527 223.217 221.145H219.28C219.28 222.669 218.831 223.596 218.14 224.214L220.766 227.148ZM223.217 221.145V200.355H219.28V221.145H223.217ZM253.772 176.163L255.08 177.634L255.089 177.626L253.772 176.163ZM252.922 187.125H250.953V189.094H252.922V187.125ZM264.356 187.125H266.325V185.156H264.356V187.125ZM264.356 194.213V196.181H266.325V194.213H264.356ZM252.922 194.213V192.244H250.953V194.213H252.922ZM252.922 234.375V236.344H254.89V234.375H252.922ZM244.889 234.375H242.92V236.344H244.889V234.375ZM244.889 194.213H246.858V192.244H244.889V194.213ZM238.747 194.213H236.778V196.181H238.747V194.213ZM238.747 187.125V185.156H236.778V187.125H238.747ZM244.889 187.125V189.094H246.858V187.125H244.889ZM247.63 171.06L249.022 172.452L249.034 172.44L249.045 172.428L247.63 171.06ZM265.301 168.225H267.27V166.256H265.301V168.225ZM265.301 175.313V177.281H267.27V175.313H265.301ZM256.229 173.344C254.832 173.344 253.513 173.748 252.455 174.7L255.089 177.626C255.291 177.444 255.61 177.281 256.229 177.281V173.344ZM252.464 174.692C251.441 175.601 250.953 176.817 250.953 178.148H254.89C254.89 177.84 254.97 177.733 255.08 177.634L252.464 174.692ZM250.953 178.148V187.125H254.89V178.148H250.953ZM252.922 189.094H264.356V185.156H252.922V189.094ZM262.387 187.125V194.213H266.325V187.125H262.387ZM264.356 192.244H252.922V196.181H264.356V192.244ZM250.953 194.213V234.375H254.89V194.213H250.953ZM252.922 232.406H244.889V236.344H252.922V232.406ZM246.858 234.375V194.213H242.92V234.375H246.858ZM244.889 192.244H238.747V196.181H244.889V192.244ZM240.715 194.213V187.125H236.778V194.213H240.715ZM238.747 189.094H244.889V185.156H238.747V189.094ZM246.858 187.125V178.62H242.92V187.125H246.858ZM246.858 178.62C246.858 175.795 247.649 173.825 249.022 172.452L246.237 169.668C243.956 171.949 242.92 175.019 242.92 178.62H246.858ZM249.045 172.428C250.461 170.963 252.292 170.194 254.717 170.194V166.256C251.346 166.256 248.452 167.377 246.214 169.692L249.045 172.428ZM254.717 170.194H265.301V166.256H254.717V170.194ZM263.332 168.225V175.313H267.27V168.225H263.332ZM265.301 173.344H256.229V177.281H265.301V173.344ZM282.657 176.163L283.965 177.634L283.974 177.626L282.657 176.163ZM281.807 187.125H279.838V189.094H281.807V187.125ZM293.241 187.125H295.21V185.156H293.241V187.125ZM293.241 194.213V196.181H295.21V194.213H293.241ZM281.807 194.213V192.244H279.838V194.213H281.807ZM281.807 234.375V236.344H283.776V234.375H281.807ZM273.774 234.375H271.806V236.344H273.774V234.375ZM273.774 194.213H275.743V192.244H273.774V194.213ZM267.632 194.213H265.663V196.181H267.632V194.213ZM267.632 187.125V185.156H265.663V187.125H267.632ZM273.774 187.125V189.094H275.743V187.125H273.774ZM276.515 171.06L277.907 172.452L277.919 172.44L277.93 172.428L276.515 171.06ZM294.186 168.225H296.155V166.256H294.186V168.225ZM294.186 175.313V177.281H296.155V175.313H294.186ZM285.114 173.344C283.717 173.344 282.398 173.748 281.34 174.7L283.974 177.626C284.177 177.444 284.495 177.281 285.114 177.281V173.344ZM281.349 174.692C280.326 175.601 279.838 176.817 279.838 178.148H283.776C283.776 177.84 283.855 177.733 283.965 177.634L281.349 174.692ZM279.838 178.148V187.125H283.776V178.148H279.838ZM281.807 189.094H293.241V185.156H281.807V189.094ZM291.273 187.125V194.213H295.21V187.125H291.273ZM293.241 192.244H281.807V196.181H293.241V192.244ZM279.838 194.213V234.375H283.776V194.213H279.838ZM281.807 232.406H273.774V236.344H281.807V232.406ZM275.743 234.375V194.213H271.806V234.375H275.743ZM273.774 192.244H267.632V196.181H273.774V192.244ZM269.601 194.213V187.125H265.663V194.213H269.601ZM267.632 189.094H273.774V185.156H267.632V189.094ZM275.743 187.125V178.62H271.806V187.125H275.743ZM275.743 178.62C275.743 175.795 276.535 173.825 277.907 172.452L275.123 169.668C272.841 171.949 271.806 175.019 271.806 178.62H275.743ZM277.93 172.428C279.346 170.963 281.178 170.194 283.602 170.194V166.256C280.231 166.256 277.337 167.377 275.099 169.692L277.93 172.428ZM283.602 170.194H294.186V166.256H283.602V170.194ZM292.218 168.225V175.313H296.155V168.225H292.218ZM294.186 173.344H285.114V177.281H294.186V173.344Z" fill="#1DDD34"/>
<rect x="5.90625" y="115.906" width="366.188" height="177.188" rx="33.4688" stroke="#1DDD34" stroke-width="11.8125"/>
</svg>
