<svg width="240" height="226" viewBox="0 0 240 226" fill="none" xmlns="http://www.w3.org/2000/svg">
<path d="M78.9474 55.4C78.9474 65.0097 71.1376 72.8 61.5038 72.8C51.87 72.8 44.0602 65.0097 44.0602 55.4C44.0602 45.7902 51.87 38 61.5038 38C71.1376 38 78.9474 45.7902 78.9474 55.4Z" fill="#80D729"/>
<path fill-rule="evenodd" clip-rule="evenodd" d="M139.555 147.657C150.046 137.192 155.94 122.999 155.94 108.2H180C180 129.364 171.571 149.662 156.569 164.627C141.566 179.593 121.217 188 100 188C78.7827 188 58.4344 179.593 43.4315 164.627C28.4286 149.662 20 129.364 20 108.2L44.0601 108.2C44.0601 122.999 49.9538 137.192 60.4445 147.657C70.9353 158.121 85.1638 164 100 164C114.836 164 129.065 158.121 139.555 147.657Z" fill="#80D729"/>
<path fill-rule="evenodd" clip-rule="evenodd" d="M180 65.6002H111.429V41.6002H180V65.6002Z" fill="#80D729"/>
</svg>
